<svg width="40" height="29" viewBox="0 0 40 29" fill="none" xmlns="http://www.w3.org/2000/svg">
<path d="M2.94355 20.4592L2.7332 20.8201C1.62293 22.725 2.26711 25.1692 4.17201 26.2795C6.07691 27.3898 8.52119 26.7456 9.63146 24.8407L9.84181 24.4798C10.952 22.5749 10.3079 20.1306 8.403 19.0204C6.4981 17.9102 4.05382 18.5543 2.94355 20.4592Z" fill="#00A1FF"/>
<path opacity="0.25" d="M7.36755 8.16087L16.9943 24.8349C18.0967 26.7444 20.5383 27.3986 22.4478 26.2962C24.3573 25.1938 25.0115 22.7522 23.9091 20.8427L14.2823 4.16865C13.1799 2.2592 10.7383 1.60498 8.82881 2.7074C6.91936 3.80982 6.26513 6.25143 7.36755 8.16087Z" fill="#00A1FF"/>
<path opacity="0.25" d="M20.7406 8.16087L30.3674 24.8349C31.4698 26.7444 33.9114 27.3986 35.8208 26.2962C37.7302 25.1938 38.3845 22.7522 37.2821 20.8427L27.6553 4.16865C26.5529 2.2592 24.1113 1.60498 22.2018 2.7074C20.2924 3.80982 19.6382 6.25143 20.7406 8.16087Z" fill="#00A1FF"/>
<path d="M7.36755 8.16088L12.9734 17.8705C14.0759 19.78 16.5175 20.4342 18.4269 19.3318C20.3364 18.2294 20.9906 15.7878 19.8882 13.8783L14.2823 4.16866C13.1799 2.25921 10.7383 1.60498 8.8288 2.7074C6.91935 3.80983 6.26513 6.25143 7.36755 8.16088Z" fill="#00A1FF"/>
<path d="M20.7406 8.16087L26.419 17.9961C27.5214 19.9056 29.963 20.5598 31.8725 19.4574C33.7819 18.355 34.4362 15.9134 33.3337 14.0039L27.6554 4.16865C26.5529 2.2592 24.1113 1.60497 22.2019 2.7074C20.2924 3.80982 19.6382 6.25142 20.7406 8.16087Z" fill="#00A1FF"/>
</svg>
